# xmcd CD database file
#
# Track frame offsets:
#	150
#	17680
#	49918
#	74976
#	96223
#	121402
#	147004
#	176464
#	203432
#	231415
#
# Disc length: 3484 seconds
#
# Revision: 0
# Processed by: cddbd v1.5.2PL0 Copyright (c) Steve Scherf et al.
# Submitted via: CDex 1.70beta2
#
DISCID=8d0d9a0a
DTITLE=Moses Khumalo - Mntungwa
DYEAR=1900
DGENRE=Jazz
TTITLE0=Moses Khumalo - Ngwana wa mme
TTITLE1=Moses Khumalo - Hymn for Taiwa
TTITLE2=Moses Khumalo - He said
TTITLE3=Moses Khumalo - Township tempo
TTITLE4=Moses Khumalo - Celebrate mzansi
TTITLE5=Moses Khumalo - African mood
TTITLE6=Moses Khumalo - Song for Leonard
TTITLE7=Moses Khumalo - Vat my huis toe
TTITLE8=Moses Khumalo - Kgotso africa
TTITLE9=Moses Khumalo - Mntungwa
EXTD=
EXTT0=
EXTT1=
EXTT2=
EXTT3=
EXTT4=
EXTT5=
EXTT6=
EXTT7=
EXTT8=
EXTT9=
PLAYORDER=
